<svg xmlns="http://www.w3.org/2000/svg" xmlns:xlink="http://www.w3.org/1999/xlink" width="28" height="26" viewBox="0 0 28 26">
    <defs>
        <path id="a" d="M.784.14h14.229v14.227H.784z"/>
    </defs>
    <g fill="none" fill-rule="evenodd">
        <g transform="translate(13 -.139)">
            <mask id="b" fill="#fff">
                <use xlink:href="#a"/>
            </mask>
            <path fill="#FFF" d="M13.588 7.253c0 3.131-2.56 5.69-5.69 5.69-3.13 0-5.689-2.559-5.689-5.69 0-3.13 2.56-5.689 5.69-5.689.57 0 1.065.07 1.566.21L10.601.636C9.746.351 8.822.14 7.898.14 3.988.14.784 3.342.784 7.253s3.203 7.114 7.114 7.114 7.115-3.203 7.115-7.114h-1.425zM4.981 5.901l-.994.998 3.2 3.2L14.3 2.982l-.997-.997-6.117 6.121-2.205-2.206z" mask="url(#b)"/>
        </g>
        <path fill="#FFF" d="M14.667 15.742a.54.54 0 0 0 .538-.538v-1.487a10.214 10.214 0 0 1-.835-.818c-.085-.095-.161-.194-.242-.292v2.597a.54.54 0 0 0 .539.538"/>
        <path fill="#FFF" d="M9.226 24.457l-8.15-3.95V10.49l8.15 3.951v10.016zm9.253-8.712v4.742l-8.176 3.97V14.441l3.812-1.85a9.911 9.911 0 0 1-.65-.88l-3.7 1.793-8.002-3.879 3.821-1.853 7.78 3.773a9.689 9.689 0 0 1-.797-1.582L6.818 7.176l2.946-1.43 2.098 1.016a13.145 13.145 0 0 1-.027-1.209l-1.833-.889a.54.54 0 0 0-.47 0L.304 9.136A.538.538 0 0 0 0 9.603v11.244c0 .206.117.394.305.484l9.226 4.472c.005 0 .005 0 .01.005a.115.115 0 0 1 .04.017c.004 0 .008.005.017.005l.041.013c.004 0 .008.005.013.005.013.005.032.005.045.008h.013c.018 0 .041.005.058.005.02 0 .041 0 .06-.005h.013a.136.136 0 0 0 .044-.008c.005 0 .01-.005.014-.005l.04-.013c.005 0 .01-.005.018-.005.014-.005.027-.009.04-.017.005 0 .005 0 .01-.005l9.253-4.486a.542.542 0 0 0 .304-.484V16.15c-.368-.12-.729-.255-1.085-.404z"/>
    </g>
</svg>
