<svg xmlns="http://www.w3.org/2000/svg" width="29" height="30" viewBox="0 0 29 30">
    <g fill="#999" fill-rule="evenodd">
        <path d="M4.064 1.421a2.539 2.539 0 0 0-2.535 2.535 2.538 2.538 0 0 0 2.535 2.535 2.537 2.537 0 0 0 2.534-2.535 2.538 2.538 0 0 0-2.534-2.535m0 6.367A3.836 3.836 0 0 1 .232 3.956 3.836 3.836 0 0 1 4.064.126a3.836 3.836 0 0 1 3.832 3.83 3.836 3.836 0 0 1-3.832 3.832M13.32 1.421a2.539 2.539 0 0 0-2.535 2.535 2.538 2.538 0 0 0 2.535 2.535 2.537 2.537 0 0 0 2.535-2.535 2.538 2.538 0 0 0-2.535-2.535m0 6.367a3.836 3.836 0 0 1-3.832-3.832A3.836 3.836 0 0 1 13.32.126a3.836 3.836 0 0 1 3.832 3.83 3.836 3.836 0 0 1-3.832 3.832M4.064 23.001a2.539 2.539 0 0 0-2.535 2.535 2.538 2.538 0 0 0 2.535 2.535 2.537 2.537 0 0 0 2.534-2.535 2.538 2.538 0 0 0-2.534-2.535m0 6.367a3.836 3.836 0 0 1-3.832-3.832 3.836 3.836 0 0 1 3.832-3.83 3.836 3.836 0 0 1 3.832 3.83 3.836 3.836 0 0 1-3.832 3.832M13.32 23.001a2.539 2.539 0 0 0-2.535 2.535 2.538 2.538 0 0 0 2.535 2.535 2.537 2.537 0 0 0 2.535-2.535 2.538 2.538 0 0 0-2.535-2.535m0 6.367a3.836 3.836 0 0 1-3.832-3.832 3.836 3.836 0 0 1 3.832-3.83 3.836 3.836 0 0 1 3.832 3.83 3.836 3.836 0 0 1-3.832 3.832M24.94 1.421a2.538 2.538 0 0 0-2.536 2.535 2.537 2.537 0 0 0 2.535 2.535 2.538 2.538 0 0 0 2.535-2.535 2.539 2.539 0 0 0-2.535-2.535m0 6.367a3.836 3.836 0 0 1-3.831-3.832 3.836 3.836 0 0 1 3.831-3.83 3.836 3.836 0 0 1 3.831 3.83 3.836 3.836 0 0 1-3.83 3.832"/>
        <path d="M3.415 22.354h1.297V7.14H3.415zM12.672 22.354h1.297V7.14h-1.297z"/>
        <path d="M24.94 14.674H4.063v-1.297h20.228V7.14h1.296v6.886a.65.65 0 0 1-.648.648M25.035 21.807h-1.619v2.382h1.572c.422 0 .776-.036 1.064-.11.287-.073.506-.197.66-.372.15-.175.226-.417.226-.724 0-.239-.06-.45-.183-.635a1.107 1.107 0 0 0-.508-.41c-.205-.087-.609-.13-1.212-.13m-1.005 3.64h-.614v2.783c0 .366-.08.636-.242.81a.822.822 0 0 1-.632.26c-.28 0-.497-.092-.65-.272-.154-.182-.23-.448-.23-.798v-6.666c0-.378.084-.653.253-.82.17-.17.443-.255.821-.255h2.855c.393 0 .73.016 1.01.05.28.033.532.101.756.204a2.176 2.176 0 0 1 1.198 1.232c.108.281.162.58.162.894 0 .647-.183 1.163-.547 1.55-.364.385-.916.658-1.657.821.311.165.608.41.892.732.283.323.536.667.76 1.031.222.365.395.694.52.988.123.293.185.495.185.605a.618.618 0 0 1-.109.34.769.769 0 0 1-.298.266.945.945 0 0 1-.438.097.848.848 0 0 1-.496-.139 1.329 1.329 0 0 1-.346-.35 15.565 15.565 0 0 1-.393-.627l-.703-1.17c-.252-.43-.478-.757-.677-.98-.198-.226-.4-.379-.605-.462-.205-.083-.463-.124-.775-.124"/>
    </g>
</svg>
