<svg xmlns="http://www.w3.org/2000/svg" width="44" height="42" viewBox="0 0 44 42">
    <g fill="none" fill-rule="evenodd" stroke="#FFF" stroke-linecap="round" stroke-linejoin="round">
        <path stroke-width="1.5" d="M1.968 36.316c-.548-.365-1.19-2.026-1.19-5.27 0-3.706 1.15-3.267 1.417-3.753.266-.487 2.23-8.042 7.596-10.57 2.266-1.065 4.365-1.101 7.54-1.155 3.038-.051 6.784-.114 10.955 1.816 4.154 1.923 6.72 4.894 8.092 6.827 0 0 4.624 1.325 5.862 5.119 1.239 3.794-1.734 6.027-1.734 6.027l-.711.314M31.114 36.394H10.672"/>
        <path stroke-width="1.5" d="M37.28 24.706H29.86s-3.186-1.593-3.544-8.104M23.773 21.877c0 2.464-3.168 2.04-7.073 2.04-3.906 0-7.073.424-7.073-2.04s3.166-4.46 7.072-4.46 7.073 1.996 7.073 4.46z"/>
        <path stroke-width="2" d="M12.91 27.843h2.13"/>
        <path stroke-width="1.5" d="M15.017 15.609a2.601 2.601 0 1 1 4.724-.075M17.195 8.175a7.963 7.963 0 0 1 4.314 2.488M17.232 4.827a11.242 11.242 0 0 1 6.168 3.04M17.191 1.577a14.446 14.446 0 0 1 8.47 3.998M10.653 36.054a4.35 4.35 0 1 1-8.699 0 4.35 4.35 0 0 1 8.7 0z"/>
        <path stroke-width="1.5" d="M7.975 36.054a1.67 1.67 0 1 1-3.341 0 1.67 1.67 0 0 1 3.34 0zM39.812 36.054a4.35 4.35 0 1 1-8.7 0 4.35 4.35 0 0 1 8.7 0z"/>
        <path stroke-width="1.5" d="M37.133 36.054a1.67 1.67 0 1 1-3.341 0 1.67 1.67 0 0 1 3.34 0zM1.956 27.623s1.305.392 1.257 3.62l.001 1.752M40.583 26.703s-1.494 1.214-.771 2.737c.722 1.523 2.664.867 2.664.867"/>
    </g>
</svg>
