<svg xmlns="http://www.w3.org/2000/svg" xmlns:xlink="http://www.w3.org/1999/xlink" width="20" height="22" viewBox="0 0 20 22">
    <defs>
        <path id="a" d="M0 0h19.565v21.25H0z"/>
    </defs>
    <g fill="none" fill-rule="evenodd">
        <mask id="b" fill="#fff">
            <use xlink:href="#a"/>
        </mask>
        <path fill="#FFF" d="M10.303 19.847V9.832l3.826-1.857v2.619a.54.54 0 0 0 .538.538.54.54 0 0 0 .538-.538V7.45l3.274-1.588v10.015l-8.176 3.969zM1.076 5.88l8.15 3.952v10.015l-8.15-3.951V5.88zm8.688 3.015l-8.001-3.88 3.82-1.853 8.003 3.88-3.822 1.853zm0-7.76l8.002 3.88-2.947 1.43-8.001-3.88 2.946-1.43zm9.792 3.875a.554.554 0 0 0-.054-.237.518.518 0 0 0-.364-.287L10.002.054a.547.547 0 0 0-.471 0L.305 4.526A.54.54 0 0 0 0 4.993v11.244c0 .207.116.394.305.484l9.226 4.472c.004 0 .004 0 .009.005.013.004.027.008.04.017.005 0 .01.005.018.005l.04.014c.005 0 .01.004.014.004.014.005.032.005.045.009h.014c.018 0 .04.004.058.004.018 0 .04 0 .058-.004h.014a.15.15 0 0 0 .045-.01c.004 0 .008-.003.013-.003l.04-.014c.005 0 .01-.005.018-.005a.178.178 0 0 0 .04-.017c.005 0 .005 0 .01-.005l9.253-4.486a.54.54 0 0 0 .305-.484v-11.2c-.01-.004-.01-.008-.01-.013z" mask="url(#b)"/>
    </g>
</svg>
