<svg xmlns="http://www.w3.org/2000/svg" width="42" height="46" viewBox="0 0 42 46">
    <g fill="none" fill-rule="evenodd" stroke="#FFF" stroke-width="2">
        <path d="M33.481 14.063c5.002 0 1.881 10.033-3.49 15.293C27.743 31.56 23.88 32 22.009 32c-1.88 0-5.812-.428-8.071-2.631-5.355-5.223-8.392-15.179-3.402-15.306 5.532-.141 5.137 0 11.473 0h11.473z"/>
        <path d="M35.604 18.656c3.828-1.749 5.514.3 5.39 2.618C40.83 24.294 33.542 29 30 29"/>
        <path stroke-linecap="round" stroke-linejoin="round" d="M19 10.853V4.09C19 2.384 20.298 1 21.9 1h7.2C30.702 1 32 2.384 32 4.09v6.763M32 32.553v9.415C32 43.642 30.702 45 29.1 45h-7.2c-1.602 0-2.9-1.358-2.9-3.032V35.24M14 33.433V42c0 1.657-1.298 3-2.9 3H3.9C2.298 45 1 43.657 1 42V4c0-1.657 1.298-3 2.9-3h7.2C12.702 1 14 2.343 14 4v6.843"/>
    </g>
</svg>
