<svg xmlns="http://www.w3.org/2000/svg" width="84" height="84" viewBox="0 0 84 84">
    <defs>
        <linearGradient id="a" x1="72.903%" x2="37.9%" y1="-16.201%" y2="108.208%">
            <stop offset="0%" stop-color="#42DDBC"/>
            <stop offset="49.623%" stop-color="#00ACD6"/>
            <stop offset="100%" stop-color="#9007C5"/>
        </linearGradient>
    </defs>
    <g fill="none" fill-rule="evenodd">
        <path stroke="#FFF" d="M41 76C21.341 76 5 59.658 5 40 5 19.342 21.341 3 41 3c20.659 0 37 16.342 37 37 0 .675-.055 1.838 0 3-1.918 18.509-17.517 33-37 33z"/>
        <path fill="#003469" d="M75 40c0 18.225-14.775 33-33 33S9 58.225 9 40 23.775 7 42 7s33 14.775 33 33"/>
        <path fill="url(#a)" d="M38 75.982L38.027 73l.328.017.158.007c.865.044 1.53.743 1.485 1.565-.042.772-.692 1.377-1.49 1.411h-.153L38 75.983V76c-.652-.032-.979-.05-.979-.05a37.676 37.676 0 0 1-14.233-3.14 38.028 38.028 0 0 1-11.985-8.299 38.068 38.068 0 0 1-7.99-12.193A38.201 38.201 0 0 1 0 38.009v-.02a37.731 37.731 0 0 1 3.171-15.166 38.162 38.162 0 0 1 8.977-12.62A38.015 38.015 0 0 1 24.1 2.658 38.327 38.327 0 0 1 37.99 0h.02c4.89.012 9.78.962 14.31 2.812a38.09 38.09 0 0 1 12.192 7.99 38.02 38.02 0 0 1 8.3 11.985 37.688 37.688 0 0 1 3.14 14.234L76 38h-2.887l-.047-.906a34.773 34.773 0 0 0-2.899-13.15 35.095 35.095 0 0 0-7.67-11.073A35.191 35.191 0 0 0 51.23 5.486a35.325 35.325 0 0 0-13.22-2.599h-.02c-8.78 0-17.479 3.423-23.877 9.43a35.282 35.282 0 0 0-8.295 11.66 34.795 34.795 0 0 0-2.93 14.014v.017A35.303 35.303 0 0 0 5.486 51.23a35.148 35.148 0 0 0 7.383 11.267 35.134 35.134 0 0 0 11.075 7.67 34.794 34.794 0 0 0 13.15 2.899l.905.048v2.869zM73.016 38l2.887.025-.016.301-.007.146a1.441 1.441 0 0 1-1.514 1.364A1.438 1.438 0 0 1 73 38.468v-.142l.016-.326z" transform="translate(4 2)"/>
        <g stroke="#FFF" stroke-linecap="round" stroke-linejoin="round" stroke-width="2.4">
            <path d="M32.188 50.203L52.062 30.33M32.188 30.33l19.874 19.873"/>
        </g>
    </g>
</svg>
